<svg data-v-fde0c5aa="" xmlns="http://www.w3.org/2000/svg" viewBox="0 0 300 300" class="font"><!----><defs data-v-fde0c5aa=""><!----></defs><rect data-v-fde0c5aa="" fill="transparent" x="0" y="0" width="300px" height="300px" class="logo-background-square"></rect><defs data-v-fde0c5aa=""><linearGradient data-v-fde0c5aa="" gradientTransform="rotate(25)" id="b487e84c-bbb0-4a4f-bf41-7048a09b2f23" x1="0%" y1="0%" x2="100%" y2="0%"><stop data-v-fde0c5aa="" offset="0%" stop-color="#276D8E" stop-opacity="1"></stop><stop data-v-fde0c5aa="" offset="100%" stop-color="#DDDFD4" stop-opacity="1"></stop></linearGradient></defs><g data-v-fde0c5aa="" id="1bbfa7f0-3f57-45e1-bda5-4d0cafe3622f" fill="url(#b487e84c-bbb0-4a4f-bf41-7048a09b2f23)" transform="matrix(1.5909318923950195,0,0,1.5909318923950195,40.037784621760615,129.16595214289822)"><path d="M7.62 15.76L7.62 15.76L7.62 15.76Q7.34 15.98 7.00 16.23L7.00 16.23L7.00 16.23Q6.65 16.47 6.26 16.67L6.26 16.67L6.26 16.67Q5.87 16.87 5.44 17.00L5.44 17.00L5.44 17.00Q5.02 17.13 4.58 17.13L4.58 17.13L4.58 17.13Q4.44 17.13 4.31 17.10L4.31 17.10L4.31 17.10Q4.18 17.06 4.08 16.98L4.08 16.98L4.08 16.98Q3.98 16.89 3.92 16.75L3.92 16.75L3.92 16.75Q3.86 16.60 3.86 16.39L3.86 16.39L3.86 16.39Q3.86 16.13 3.89 15.10L3.89 15.10L3.89 15.10Q3.90 14.66 3.91 14.01L3.91 14.01L3.91 14.01Q3.93 13.36 3.95 12.43L3.95 12.43L3.95 12.43Q3.98 11.51 4.01 10.28L4.01 10.28L4.01 10.28Q4.05 9.06 4.09 7.47L4.09 7.47L4.09 7.47Q3.45 7.55 2.81 7.59L2.81 7.59L2.81 7.59Q2.18 7.64 1.54 7.64L1.54 7.64L1.54 7.64Q0.95 7.64 0.56 7.57L0.56 7.57L0.56 7.57Q0.17 7.50 0.01 7.33L0.01 7.33L0.01 7.33Q-0.08 7.18 0.07 6.95L0.07 6.95L0.07 6.95Q0.13 6.86 0.25 6.73L0.25 6.73L0.25 6.73Q0.36 6.61 0.56 6.46L0.56 6.46L0.56 6.46Q0.77 6.31 1.06 6.13L1.06 6.13L1.06 6.13Q1.35 5.95 1.76 5.75L1.76 5.75L1.76 5.75Q1.65 5.89 1.66 5.98L1.66 5.98L1.66 5.98Q1.67 6.07 1.72 6.13L1.72 6.13L1.72 6.13Q1.77 6.21 1.87 6.25L1.87 6.25L1.87 6.25Q2.07 6.33 2.48 6.39L2.48 6.39L2.48 6.39Q2.88 6.45 3.61 6.45L3.61 6.45L3.61 6.45Q4.40 6.45 5.17 6.38L5.17 6.38L5.17 6.38Q5.94 6.32 6.69 6.24L6.69 6.24L6.69 6.24Q7.44 6.17 8.18 6.10L8.18 6.10L8.18 6.10Q8.92 6.04 9.66 6.04L9.66 6.04L9.66 6.04Q9.86 6.04 10.01 6.05L10.01 6.05L10.01 6.05Q10.17 6.06 10.25 6.10L10.25 6.10L10.25 6.10Q10.38 6.15 10.34 6.25L10.34 6.25L10.34 6.25Q10.29 6.36 10.14 6.49L10.14 6.49L10.14 6.49Q9.99 6.62 9.76 6.77L9.76 6.77L9.76 6.77Q9.54 6.92 9.30 7.05L9.30 7.05L9.30 7.05Q9.06 7.18 8.84 7.28L8.84 7.28L8.84 7.28Q8.62 7.38 8.50 7.42L8.50 7.42L8.50 7.42Q8.56 7.21 8.42 7.12L8.42 7.12L8.42 7.12Q8.27 7.03 7.81 7.07L7.81 7.07L7.81 7.07Q6.79 7.15 5.80 7.27L5.80 7.27L5.53 15.76L5.53 15.76Q5.69 15.87 5.91 15.92L5.91 15.92L5.91 15.92Q6.13 15.97 6.36 15.97L6.36 15.97L6.36 15.97Q6.59 15.97 6.82 15.94L6.82 15.94L6.82 15.94Q7.04 15.91 7.22 15.87L7.22 15.87L7.22 15.87Q7.43 15.82 7.62 15.76ZM12.89 15.78L12.89 15.78L11.25 16.96L11.25 16.96Q11.27 15.18 11.30 13.77L11.30 13.77L11.30 13.77Q11.33 12.35 11.34 11.25L11.34 11.25L11.34 11.25Q11.36 10.14 11.38 9.33L11.38 9.33L11.38 9.33Q11.39 8.52 11.40 7.94L11.40 7.94L11.40 7.94Q11.42 6.58 11.42 6.03L11.42 6.03L11.42 6.03Q11.44 5.20 11.18 4.73L11.18 4.73L11.18 4.73Q10.92 4.27 10.39 4.27L10.39 4.27L10.39 4.27Q10.22 4.27 10.04 4.31L10.04 4.31L10.04 4.31Q9.85 4.35 9.64 4.46L9.64 4.46L9.64 4.46Q9.91 4.27 10.20 4.07L10.20 4.07L10.20 4.07Q10.49 3.87 10.80 3.71L10.80 3.71L10.80 3.71Q11.10 3.54 11.41 3.44L11.41 3.44L11.41 3.44Q11.72 3.33 12.03 3.33L12.03 3.33L12.03 3.33Q12.30 3.33 12.50 3.43L12.50 3.43L12.50 3.43Q12.69 3.53 12.81 3.70L12.81 3.70L12.81 3.70Q12.94 3.87 13.01 4.08L13.01 4.08L13.01 4.08Q13.08 4.30 13.11 4.53L13.11 4.53L13.11 4.53Q13.14 4.76 13.15 5.00L13.15 5.00L13.15 5.00Q13.15 5.23 13.15 5.43L13.15 5.43L13.15 5.43Q13.15 5.53 13.15 5.80L13.15 5.80L13.15 5.80Q13.15 6.07 13.14 6.47L13.14 6.47L13.14 6.47Q13.13 6.88 13.12 7.40L13.12 7.40L13.12 7.40Q13.11 7.92 13.10 8.51L13.10 8.51L13.10 8.51Q13.08 9.11 13.07 9.76L13.07 9.76L13.07 9.76Q13.06 10.41 13.04 11.08L13.04 11.08L13.04 11.08Q13.37 10.69 13.82 10.35L13.82 10.35L13.82 10.35Q14.26 10.01 14.75 9.77L14.75 9.77L14.75 9.77Q15.23 9.53 15.73 9.41L15.73 9.41L15.73 9.41Q16.22 9.29 16.67 9.34L16.67 9.34L16.67 9.34Q16.97 9.39 17.30 9.52L17.30 9.52L17.30 9.52Q17.63 9.65 17.91 9.91L17.91 9.91L17.91 9.91Q18.18 10.18 18.35 10.61L18.35 10.61L18.35 10.61Q18.53 11.05 18.51 11.70L18.51 11.70L18.51 11.70Q18.49 12.46 18.45 13.10L18.45 13.10L18.45 13.10Q18.40 13.74 18.40 14.23L18.40 14.23L18.40 14.23Q18.40 14.53 18.45 14.79L18.45 14.79L18.45 14.79Q18.50 15.05 18.61 15.25L18.61 15.25L18.61 15.25Q18.73 15.44 18.94 15.56L18.94 15.56L18.94 15.56Q19.14 15.67 19.45 15.67L19.45 15.67L19.45 15.67Q19.73 15.67 20.03 15.57L20.03 15.57L20.03 15.57Q20.33 15.46 20.64 15.24L20.64 15.24L20.64 15.24Q20.14 15.69 19.73 15.99L19.73 15.99L19.73 15.99Q19.31 16.29 18.96 16.47L18.96 16.47L18.96 16.47Q18.61 16.66 18.30 16.74L18.30 16.74L18.30 16.74Q17.99 16.82 17.70 16.81L17.70 16.81L17.70 16.81Q17.41 16.80 17.21 16.70L17.21 16.70L17.21 16.70Q17.01 16.59 16.88 16.37L16.88 16.37L16.88 16.37Q16.76 16.15 16.71 15.79L16.71 15.79L16.71 15.79Q16.67 15.44 16.68 14.93L16.68 14.93L16.68 14.93Q16.70 14.48 16.73 13.94L16.73 13.94L16.73 13.94Q16.76 13.39 16.76 12.86L16.76 12.86L16.76 12.86Q16.76 12.25 16.68 11.81L16.68 11.81L16.68 11.81Q16.60 11.38 16.39 11.09L16.39 11.09L16.39 11.09Q16.17 10.81 15.79 10.67L15.79 10.67L15.79 10.67Q15.42 10.53 14.81 10.53L14.81 10.53L14.81 10.53Q14.51 10.53 14.25 10.59L14.25 10.59L14.25 10.59Q13.99 10.64 13.84 10.75L13.84 10.75L13.84 10.75Q13.71 10.83 13.57 11.15L13.57 11.15L13.57 11.15Q13.43 11.47 13.29 12.08L13.29 12.08L13.29 12.08Q13.15 12.68 13.04 13.59L13.04 13.59L13.04 13.59Q12.93 14.51 12.89 15.78ZM24.81 11.66L29.83 10.02L29.83 10.02Q29.04 10.40 28.37 10.70L28.37 10.70L28.37 10.70Q27.69 11.00 27.18 11.20L27.18 11.20L27.18 11.20Q26.58 11.44 26.09 11.63L26.09 11.63L26.09 11.63Q25.78 11.76 25.41 11.89L25.41 11.89L25.41 11.89Q25.03 12.02 24.63 12.15L24.63 12.15L24.63 12.15Q24.23 12.28 23.81 12.40L23.81 12.40L23.81 12.40Q23.39 12.53 22.98 12.65L22.98 12.65L22.98 12.79L22.98 12.79Q22.98 13.49 23.20 14.05L23.20 14.05L23.20 14.05Q23.42 14.62 23.82 15.01L23.82 15.01L23.82 15.01Q24.21 15.40 24.77 15.61L24.77 15.61L24.77 15.61Q25.32 15.82 25.99 15.82L25.99 15.82L25.99 15.82Q26.34 15.82 26.68 15.76L26.68 15.76L26.68 15.76Q27.03 15.71 27.34 15.62L27.34 15.62L27.34 15.62Q27.65 15.52 27.92 15.39L27.92 15.39L27.92 15.39Q28.20 15.26 28.41 15.11L28.41 15.11L28.41 15.11Q27.89 15.58 27.34 15.89L27.34 15.89L27.34 15.89Q26.79 16.21 26.24 16.40L26.24 16.40L26.24 16.40Q25.69 16.60 25.15 16.69L25.15 16.69L25.15 16.69Q24.62 16.78 24.12 16.78L24.12 16.78L24.12 16.78Q23.63 16.80 23.14 16.63L23.14 16.63L23.14 16.63Q22.66 16.46 22.26 16.12L22.26 16.12L22.26 16.12Q21.87 15.78 21.59 15.27L21.59 15.27L21.59 15.27Q21.32 14.76 21.24 14.08L21.24 14.08L21.24 14.08Q21.21 13.84 21.21 13.62L21.21 13.62L21.21 13.62Q21.21 13.40 21.25 13.18L21.25 13.18L21.25 13.18Q21.01 13.27 20.82 13.34L20.82 13.34L20.82 13.34Q20.62 13.42 20.50 13.49L20.50 13.49L20.50 13.49Q20.70 13.36 20.90 13.24L20.90 13.24L20.90 13.24Q21.10 13.12 21.29 13.02L21.29 13.02L21.29 13.02Q21.40 12.48 21.69 12.00L21.69 12.00L21.69 12.00Q21.97 11.51 22.37 11.09L22.37 11.09L22.37 11.09Q22.77 10.68 23.26 10.34L23.26 10.34L23.26 10.34Q23.75 10.00 24.28 9.76L24.28 9.76L24.28 9.76Q24.81 9.52 25.36 9.39L25.36 9.39L25.36 9.39Q25.91 9.26 26.42 9.26L26.42 9.26L26.42 9.26Q26.76 9.26 27.00 9.37L27.00 9.37L27.00 9.37Q27.23 9.47 27.32 9.73L27.32 9.73L27.32 9.73Q27.36 10.00 27.12 10.32L27.12 10.32L27.12 10.32Q27.02 10.45 26.84 10.61L26.84 10.61L26.84 10.61Q26.67 10.76 26.39 10.93L26.39 10.93L26.39 10.93Q26.11 11.10 25.73 11.29L25.73 11.29L25.73 11.29Q25.34 11.47 24.81 11.66L24.81 11.66ZM24.40 11.68L24.40 11.68L24.40 11.68Q24.70 11.55 24.93 11.40L24.93 11.40L24.93 11.40Q25.17 11.25 25.30 11.09L25.30 11.09L25.30 11.09Q25.44 10.92 25.44 10.75L25.44 10.75L25.44 10.75Q25.45 10.57 25.30 10.37L25.30 10.37L25.30 10.37Q25.20 10.22 25.02 10.16L25.02 10.16L25.02 10.16Q24.83 10.10 24.64 10.10L24.64 10.10L24.64 10.10Q24.47 10.10 24.30 10.14L24.30 10.14L24.30 10.14Q24.14 10.18 24.01 10.24L24.01 10.24L24.01 10.24Q23.93 10.29 23.79 10.45L23.79 10.45L23.79 10.45Q23.65 10.61 23.50 10.87L23.50 10.87L23.50 10.87Q23.34 11.12 23.21 11.46L23.21 11.46L23.21 11.46Q23.08 11.80 23.02 12.20L23.02 12.20L23.02 12.20Q23.45 12.04 23.80 11.92L23.80 11.92L23.80 11.92Q24.14 11.80 24.40 11.68ZM40.93 6.59L40.93 6.59L40.93 6.59Q41.06 6.64 41.05 6.75L41.05 6.75L41.05 6.75Q41.05 6.86 40.96 7.01L40.96 7.01L40.96 7.01Q40.87 7.15 40.71 7.31L40.71 7.31L40.71 7.31Q40.55 7.47 40.36 7.64L40.36 7.64L40.36 7.64Q40.20 7.77 40.00 7.92L40.00 7.92L40.00 7.92Q39.82 8.05 39.56 8.23L39.56 8.23L39.56 8.23Q39.31 8.40 38.98 8.61L38.98 8.61L38.98 8.61Q39.16 8.44 39.24 8.30L39.24 8.30L39.24 8.30Q39.31 8.16 39.31 8.05L39.31 8.05L39.31 8.05Q39.31 7.89 39.19 7.77L39.19 7.77L39.19 7.77Q39.07 7.66 38.88 7.58L38.88 7.58L38.88 7.58Q38.68 7.50 38.45 7.45L38.45 7.45L38.45 7.45Q38.21 7.40 37.99 7.38L37.99 7.38L37.99 7.38Q37.77 7.36 37.58 7.35L37.58 7.35L37.58 7.35Q37.40 7.34 37.31 7.34L37.31 7.34L37.31 7.34Q36.95 7.34 36.58 7.41L36.58 7.41L36.58 7.41Q36.21 7.49 35.92 7.65L35.92 7.65L35.92 7.65Q35.62 7.82 35.44 8.10L35.44 8.10L35.44 8.10Q35.25 8.37 35.25 8.78L35.25 8.78L35.25 8.78Q35.25 9.25 35.51 9.58L35.51 9.58L35.51 9.58Q35.77 9.91 36.20 10.16L36.20 10.16L36.20 10.16Q36.62 10.40 37.16 10.59L37.16 10.59L37.16 10.59Q37.69 10.77 38.24 10.94L38.24 10.94L38.24 10.94Q38.79 11.11 39.31 11.28L39.31 11.28L39.31 11.28Q39.83 11.45 40.21 11.67L40.21 11.67L40.21 11.67Q40.71 11.97 40.94 12.37L40.94 12.37L40.94 12.37Q41.16 12.77 41.16 13.21L41.16 13.21L41.16 13.21Q41.16 13.79 40.85 14.30L40.85 14.30L40.85 14.30Q40.55 14.82 40.06 15.26L40.06 15.26L40.06 15.26Q39.57 15.71 38.95 16.06L38.95 16.06L38.95 16.06Q38.33 16.42 37.69 16.67L37.69 16.67L37.69 16.67Q37.06 16.93 36.46 17.06L36.46 17.06L36.46 17.06Q35.87 17.20 35.43 17.20L35.43 17.20L35.43 17.20Q34.86 17.20 34.43 17.09L34.43 17.09L34.43 17.09Q34.00 16.97 33.71 16.82L33.71 16.82L33.71 16.82Q33.43 16.66 33.29 16.49L33.29 16.49L33.29 16.49Q33.15 16.32 33.17 16.22L33.17 16.22L33.17 16.22Q33.18 16.10 33.29 15.95L33.29 15.95L33.29 15.95Q33.41 15.80 33.63 15.63L33.63 15.63L33.63 15.63Q33.86 15.46 34.20 15.26L34.20 15.26L34.20 15.26Q34.54 15.05 35.03 14.81L35.03 14.81L35.03 14.81Q34.83 15.00 34.85 15.16L34.85 15.16L34.85 15.16Q34.87 15.33 35.04 15.46L35.04 15.46L35.04 15.46Q35.22 15.59 35.50 15.69L35.50 15.69L35.50 15.69Q35.79 15.78 36.10 15.85L36.10 15.85L36.10 15.85Q36.42 15.91 36.74 15.95L36.74 15.95L36.74 15.95Q37.06 15.98 37.31 15.98L37.31 15.98L37.31 15.98Q37.73 15.98 38.14 15.89L38.14 15.89L38.14 15.89Q38.55 15.80 38.89 15.61L38.89 15.61L38.89 15.61Q39.22 15.42 39.43 15.10L39.43 15.10L39.43 15.10Q39.63 14.78 39.63 14.33L39.63 14.33L39.63 14.33Q39.63 14.06 39.53 13.78L39.53 13.78L39.53 13.78Q39.42 13.49 39.15 13.23L39.15 13.23L39.15 13.23Q38.89 12.96 38.45 12.73L38.45 12.73L38.45 12.73Q38.00 12.49 37.34 12.32L37.34 12.32L37.34 12.32Q36.33 12.05 35.63 11.77L35.63 11.77L35.63 11.77Q34.94 11.48 34.52 11.16L34.52 11.16L34.52 11.16Q34.10 10.83 33.93 10.45L33.93 10.45L33.93 10.45Q33.77 10.06 33.81 9.58L33.81 9.58L33.81 9.58Q33.85 9.03 34.15 8.58L34.15 8.58L34.15 8.58Q34.44 8.12 34.89 7.76L34.89 7.76L34.89 7.76Q35.35 7.40 35.91 7.14L35.91 7.14L35.91 7.14Q36.48 6.87 37.06 6.70L37.06 6.70L37.06 6.70Q37.65 6.52 38.20 6.44L38.20 6.44L38.20 6.44Q38.75 6.35 39.18 6.35L39.18 6.35L39.18 6.35Q39.51 6.35 39.80 6.38L39.80 6.38L39.80 6.38Q40.09 6.41 40.32 6.44L40.32 6.44L40.32 6.44Q40.55 6.47 40.71 6.52L40.71 6.52L40.71 6.52Q40.87 6.56 40.93 6.59ZM46.84 21.43L46.84 21.43L46.84 21.43Q46.29 21.85 45.84 22.12L45.84 22.12L45.84 22.12Q45.40 22.39 45.05 22.56L45.05 22.56L45.05 22.56Q44.69 22.72 44.42 22.78L44.42 22.78L44.42 22.78Q44.15 22.85 43.94 22.86L43.94 22.86L43.94 22.86Q43.73 22.87 43.60 22.78L43.60 22.78L43.60 22.78Q43.46 22.68 43.39 22.51L43.39 22.51L43.39 22.51Q43.31 22.33 43.29 22.09L43.29 22.09L43.29 22.09Q43.26 21.84 43.27 21.54L43.27 21.54L43.27 21.54Q43.28 21.42 43.28 21.09L43.28 21.09L43.28 21.09Q43.29 20.76 43.29 20.27L43.29 20.27L43.29 20.27Q43.30 19.78 43.30 19.17L43.30 19.17L43.30 19.17Q43.31 18.57 43.31 17.89L43.31 17.89L43.31 17.89Q43.32 17.22 43.33 16.52L43.33 16.52L43.33 16.52Q43.33 15.81 43.34 15.13L43.34 15.13L43.34 15.13Q43.35 14.45 43.35 13.83L43.35 13.83L43.35 13.83Q43.35 13.21 43.36 12.71L43.36 12.71L43.36 12.71Q43.37 12.21 43.37 11.86L43.37 11.86L43.37 11.86Q43.37 11.50 43.38 11.36L43.38 11.36L43.38 11.36Q43.40 10.85 43.25 10.60L43.25 10.60L43.25 10.60Q43.10 10.34 42.75 10.34L42.75 10.34L42.75 10.34Q42.62 10.34 42.47 10.38L42.47 10.38L42.47 10.38Q42.31 10.42 42.14 10.48L42.14 10.48L42.14 10.48Q42.38 10.29 42.66 10.09L42.66 10.09L42.66 10.09Q42.93 9.88 43.22 9.70L43.22 9.70L43.22 9.70Q43.51 9.52 43.81 9.41L43.81 9.41L43.81 9.41Q44.11 9.29 44.42 9.29L44.42 9.29L44.42 9.29Q44.58 9.29 44.72 9.34L44.72 9.34L44.72 9.34Q44.86 9.40 44.97 9.54L44.97 9.54L44.97 9.54Q45.08 9.67 45.15 9.90L45.15 9.90L45.15 9.90Q45.21 10.13 45.21 10.48L45.21 10.48L45.21 10.94L45.21 10.94Q46.01 10.20 46.95 9.79L46.95 9.79L46.95 9.79Q47.90 9.37 48.98 9.37L48.98 9.37L48.98 9.37Q49.55 9.37 50.01 9.61L50.01 9.61L50.01 9.61Q50.47 9.85 50.79 10.24L50.79 10.24L50.79 10.24Q51.12 10.64 51.29 11.14L51.29 11.14L51.29 11.14Q51.46 11.64 51.46 12.16L51.46 12.16L51.46 12.16Q51.46 12.90 51.18 13.49L51.18 13.49L51.18 13.49Q50.89 14.08 50.44 14.55L50.44 14.55L50.44 14.55Q49.98 15.03 49.40 15.39L49.40 15.39L49.40 15.39Q48.83 15.75 48.25 16.04L48.25 16.04L48.25 16.04Q47.96 16.19 47.58 16.32L47.58 16.32L47.58 16.32Q47.21 16.45 46.79 16.55L46.79 16.55L46.79 16.55Q46.38 16.65 45.94 16.71L45.94 16.71L45.94 16.71Q45.51 16.78 45.12 16.81L45.12 16.81L45.12 16.81Q45.10 17.87 45.09 18.90L45.09 18.90L45.09 18.90Q45.08 19.93 45.08 20.99L45.08 20.99L45.08 20.99Q45.09 21.34 45.26 21.54L45.26 21.54L45.26 21.54Q45.42 21.74 45.77 21.74L45.77 21.74L45.77 21.74Q46.19 21.74 46.84 21.43ZM47.13 15.72L47.13 15.72L47.13 15.72Q47.61 15.72 47.97 15.64L47.97 15.64L47.97 15.64Q48.34 15.56 48.58 15.46L48.58 15.46L48.58 15.46Q48.87 15.35 49.08 15.21L49.08 15.21L49.08 15.21Q49.21 15.10 49.31 14.90L49.31 14.90L49.31 14.90Q49.42 14.69 49.50 14.42L49.50 14.42L49.50 14.42Q49.57 14.16 49.62 13.84L49.62 13.84L49.62 13.84Q49.67 13.52 49.67 13.18L49.67 13.18L49.67 13.18Q49.67 12.61 49.49 12.10L49.49 12.10L49.49 12.10Q49.31 11.59 48.98 11.20L48.98 11.20L48.98 11.20Q48.65 10.82 48.18 10.60L48.18 10.60L48.18 10.60Q47.71 10.37 47.12 10.37L47.12 10.37L47.12 10.37Q46.63 10.37 46.27 10.66L46.27 10.66L46.27 10.66Q45.90 10.96 45.66 11.57L45.66 11.57L45.66 11.57Q45.42 12.17 45.30 13.12L45.30 13.12L45.30 13.12Q45.17 14.07 45.14 15.37L45.14 15.37L45.14 15.37Q45.73 15.57 46.22 15.64L46.22 15.64L46.22 15.64Q46.71 15.72 47.13 15.72ZM55.51 11.01L55.51 11.01L55.51 11.01Q55.83 10.71 56.21 10.40L56.21 10.40L56.21 10.40Q56.59 10.09 56.98 9.84L56.98 9.84L56.98 9.84Q57.37 9.59 57.77 9.43L57.77 9.43L57.77 9.43Q58.17 9.28 58.52 9.28L58.52 9.28L58.52 9.28Q58.75 9.28 58.98 9.33L58.98 9.33L58.98 9.33Q59.21 9.38 59.44 9.44L59.44 9.44L59.44 9.44Q59.66 9.51 59.88 9.56L59.88 9.56L59.88 9.56Q60.09 9.61 60.32 9.61L60.32 9.61L60.32 9.61Q60.46 9.61 60.61 9.59L60.61 9.59L60.61 9.59Q60.76 9.57 60.95 9.52L60.95 9.52L60.95 9.52Q60.52 9.84 60.20 10.08L60.20 10.08L60.20 10.08Q59.88 10.32 59.60 10.48L59.60 10.48L59.60 10.48Q59.32 10.63 59.04 10.70L59.04 10.70L59.04 10.70Q58.76 10.77 58.42 10.76L58.42 10.76L58.42 10.76Q58.08 10.75 57.79 10.69L57.79 10.69L57.79 10.69Q57.49 10.63 57.25 10.56L57.25 10.56L57.25 10.56Q57.00 10.50 56.82 10.47L56.82 10.47L56.82 10.47Q56.64 10.44 56.54 10.49L56.54 10.49L56.54 10.49Q56.29 10.62 56.11 10.94L56.11 10.94L56.11 10.94Q55.92 11.27 55.80 11.72L55.80 11.72L55.80 11.72Q55.67 12.17 55.59 12.70L55.59 12.70L55.59 12.70Q55.51 13.23 55.48 13.75L55.48 13.75L55.48 13.75Q55.44 14.28 55.44 14.76L55.44 14.76L55.44 14.76Q55.44 15.23 55.47 15.58L55.47 15.58L55.47 15.58Q54.95 15.91 54.62 16.15L54.62 16.15L54.62 16.15Q54.28 16.39 54.09 16.54L54.09 16.54L54.09 16.54Q53.85 16.73 53.73 16.86L53.73 16.86L53.73 16.86Q53.74 16.45 53.75 15.87L53.75 15.87L53.75 15.87Q53.76 15.29 53.77 14.64L53.77 14.64L53.77 14.64Q53.79 14 53.79 13.37L53.79 13.37L53.79 13.37Q53.80 12.74 53.80 12.23L53.80 12.23L53.80 12.23Q53.80 11.91 53.78 11.58L53.78 11.58L53.78 11.58Q53.76 11.25 53.67 10.97L53.67 10.97L53.67 10.97Q53.57 10.70 53.37 10.53L53.37 10.53L53.37 10.53Q53.17 10.36 52.80 10.36L52.80 10.36L52.80 10.36Q52.66 10.36 52.50 10.39L52.50 10.39L52.50 10.39Q52.35 10.42 52.20 10.49L52.20 10.49L52.20 10.49Q52.49 10.30 52.77 10.10L52.77 10.10L52.77 10.10Q53.06 9.91 53.35 9.74L53.35 9.74L53.35 9.74Q53.64 9.58 53.93 9.48L53.93 9.48L53.93 9.48Q54.22 9.39 54.52 9.39L54.52 9.39L54.52 9.39Q54.89 9.39 55.09 9.54L55.09 9.54L55.09 9.54Q55.29 9.70 55.38 9.94L55.38 9.94L55.38 9.94Q55.47 10.18 55.49 10.47L55.49 10.47L55.49 10.47Q55.51 10.75 55.51 11.01ZM63.50 3.77L63.50 3.77L63.50 3.77Q63.50 3.97 63.51 4.15L63.51 4.15L63.51 4.15Q63.51 4.33 63.51 4.50L63.51 4.50L63.51 4.50Q63.51 4.91 63.44 5.20L63.44 5.20L63.44 5.20Q63.38 5.48 63.12 5.65L63.12 5.65L63.12 5.65Q62.97 5.76 62.75 5.91L62.75 5.91L62.75 5.91Q62.37 6.15 61.54 6.66L61.54 6.66L61.54 6.66Q61.62 6.44 61.66 6.13L61.66 6.13L61.66 6.13Q61.69 5.82 61.71 5.54L61.71 5.54L61.71 5.54Q61.72 5.21 61.71 4.85L61.71 4.85L61.71 4.85Q62.14 4.63 62.47 4.43L62.47 4.43L62.47 4.43Q62.79 4.24 63.03 4.09L63.03 4.09L63.03 4.09Q63.30 3.92 63.50 3.77ZM65.91 15.42L65.91 15.42L65.91 15.42Q65.13 15.93 64.58 16.23L64.58 16.23L64.58 16.23Q64.04 16.52 63.65 16.67L63.65 16.67L63.65 16.67Q63.26 16.81 62.99 16.83L62.99 16.83L62.99 16.83Q62.73 16.85 62.51 16.81L62.51 16.81L62.51 16.81Q62.31 16.78 62.12 16.71L62.12 16.71L62.12 16.71Q61.93 16.64 61.77 16.46L61.77 16.46L61.77 16.46Q61.62 16.28 61.52 15.93L61.52 15.93L61.52 15.93Q61.43 15.59 61.43 15.00L61.43 15.00L61.43 15.00Q61.43 14.51 61.46 14.03L61.46 14.03L61.46 14.03Q61.48 13.55 61.51 13.07L61.51 13.07L61.51 13.07Q61.54 12.60 61.56 12.13L61.56 12.13L61.56 12.13Q61.58 11.66 61.56 11.20L61.56 11.20L61.56 11.20Q61.55 10.75 61.40 10.54L61.40 10.54L61.40 10.54Q61.25 10.33 60.95 10.33L60.95 10.33L60.95 10.33Q60.83 10.33 60.70 10.36L60.70 10.36L60.70 10.36Q60.56 10.38 60.40 10.44L60.40 10.44L60.40 10.44Q60.65 10.27 60.91 10.09L60.91 10.09L60.91 10.09Q61.17 9.92 61.43 9.78L61.43 9.78L61.43 9.78Q61.70 9.65 61.97 9.56L61.97 9.56L61.97 9.56Q62.24 9.47 62.51 9.47L62.51 9.47L62.51 9.47Q62.79 9.47 63.01 9.60L63.01 9.60L63.01 9.60Q63.23 9.73 63.29 10.04L63.29 10.04L63.29 10.04Q63.31 10.15 63.32 10.38L63.32 10.38L63.32 10.38Q63.33 10.60 63.33 10.90L63.33 10.90L63.33 10.90Q63.33 11.35 63.31 11.89L63.31 11.89L63.31 11.89Q63.29 12.43 63.27 12.95L63.27 12.95L63.27 12.95Q63.25 13.47 63.23 13.91L63.23 13.91L63.23 13.91Q63.21 14.36 63.21 14.59L63.21 14.59L63.21 14.59Q63.20 14.82 63.29 15.05L63.29 15.05L63.29 15.05Q63.38 15.27 63.55 15.45L63.55 15.45L63.55 15.45Q63.72 15.63 63.98 15.75L63.98 15.75L63.98 15.75Q64.24 15.86 64.57 15.86L64.57 15.86L64.57 15.86Q64.85 15.86 65.19 15.76L65.19 15.76L65.19 15.76Q65.52 15.65 65.91 15.42ZM68.48 15.78L68.48 15.78L66.85 16.96L66.85 16.96Q66.91 15.64 66.94 14.71L66.94 14.71L66.94 14.71Q66.98 13.78 66.99 13.18L66.99 13.18L66.99 13.18Q67.01 12.48 67.01 12.02L67.01 12.02L67.01 12.02Q67.05 11.19 66.79 10.72L66.79 10.72L66.79 10.72Q66.53 10.25 65.99 10.25L65.99 10.25L65.99 10.25Q65.82 10.25 65.64 10.31L65.64 10.31L65.64 10.31Q65.45 10.36 65.24 10.45L65.24 10.45L65.24 10.45Q65.50 10.26 65.80 10.06L65.80 10.06L65.80 10.06Q66.09 9.86 66.40 9.69L66.40 9.69L66.40 9.69Q66.71 9.53 67.02 9.42L67.02 9.42L67.02 9.42Q67.33 9.32 67.63 9.32L67.63 9.32L67.63 9.32Q67.92 9.32 68.15 9.43L68.15 9.43L68.15 9.43Q68.39 9.55 68.51 9.82L68.51 9.82L68.51 9.82Q68.62 10.06 68.66 10.34L68.66 10.34L68.66 10.34Q68.71 10.63 68.72 10.97L68.72 10.97L68.72 10.97Q69.07 10.60 69.50 10.28L69.50 10.28L69.50 10.28Q69.94 9.96 70.41 9.73L70.41 9.73L70.41 9.73Q70.88 9.51 71.36 9.40L71.36 9.40L71.36 9.40Q71.84 9.29 72.26 9.34L72.26 9.34L72.26 9.34Q72.57 9.39 72.90 9.52L72.90 9.52L72.90 9.52Q73.23 9.65 73.51 9.91L73.51 9.91L73.51 9.91Q73.79 10.18 73.96 10.61L73.96 10.61L73.96 10.61Q74.13 11.05 74.12 11.70L74.12 11.70L74.12 11.70Q74.09 12.46 74.05 13.10L74.05 13.10L74.05 13.10Q74.00 13.74 74.00 14.23L74.00 14.23L74.00 14.23Q74.00 14.53 74.05 14.79L74.05 14.79L74.05 14.79Q74.09 15.05 74.21 15.25L74.21 15.25L74.21 15.25Q74.33 15.44 74.54 15.56L74.54 15.56L74.54 15.56Q74.74 15.67 75.05 15.67L75.05 15.67L75.05 15.67Q75.33 15.67 75.63 15.57L75.63 15.57L75.63 15.57Q75.93 15.46 76.24 15.24L76.24 15.24L76.24 15.24Q75.74 15.69 75.33 15.99L75.33 15.99L75.33 15.99Q74.92 16.29 74.56 16.47L74.56 16.47L74.56 16.47Q74.20 16.66 73.90 16.74L73.90 16.74L73.90 16.74Q73.59 16.82 73.30 16.81L73.30 16.81L73.30 16.81Q73.01 16.80 72.81 16.70L72.81 16.70L72.81 16.70Q72.60 16.59 72.48 16.37L72.48 16.37L72.48 16.37Q72.36 16.15 72.31 15.79L72.31 15.79L72.31 15.79Q72.26 15.44 72.28 14.93L72.28 14.93L72.28 14.93Q72.30 14.48 72.33 13.94L72.33 13.94L72.33 13.94Q72.37 13.39 72.37 12.86L72.37 12.86L72.37 12.86Q72.37 12.25 72.28 11.81L72.28 11.81L72.28 11.81Q72.20 11.38 71.99 11.09L71.99 11.09L71.99 11.09Q71.77 10.81 71.39 10.67L71.39 10.67L71.39 10.67Q71.01 10.53 70.42 10.53L70.42 10.53L70.42 10.53Q69.99 10.53 69.69 10.70L69.69 10.70L69.69 10.70Q69.38 10.87 69.19 11.16L69.19 11.16L69.19 11.16Q68.99 11.44 68.88 11.82L68.88 11.82L68.88 11.82Q68.76 12.20 68.70 12.63L68.70 12.63L68.70 12.63Q68.65 13.06 68.63 13.50L68.63 13.50L68.63 13.50Q68.61 13.95 68.60 14.37L68.60 14.37L68.60 14.37Q68.58 14.79 68.56 15.15L68.56 15.15L68.56 15.15Q68.54 15.52 68.48 15.78ZM84.10 9.67L84.10 9.67L84.10 9.67Q84.08 10.54 84.06 11.23L84.06 11.23L84.06 11.23Q84.05 11.93 84.04 12.48L84.04 12.48L84.04 12.48Q84.03 13.02 84.02 13.43L84.02 13.43L84.02 13.43Q84.01 13.84 84.01 14.13L84.01 14.13L84.01 14.13Q84.01 14.81 84.01 15.10L84.01 15.10L84.01 15.10Q84 15.86 83.99 16.43L83.99 16.43L83.99 16.43Q83.99 17.01 83.92 17.46L83.92 17.46L83.92 17.46Q83.86 17.91 83.70 18.26L83.70 18.26L83.70 18.26Q83.55 18.60 83.24 18.89L83.24 18.89L83.24 18.89Q82.71 19.41 82.13 19.92L82.13 19.92L82.13 19.92Q81.55 20.43 80.93 20.83L80.93 20.83L80.93 20.83Q80.32 21.24 79.65 21.49L79.65 21.49L79.65 21.49Q78.98 21.74 78.26 21.74L78.26 21.74L78.26 21.74Q77.83 21.74 77.35 21.61L77.35 21.61L77.35 21.61Q76.87 21.49 76.46 21.24L76.46 21.24L76.46 21.24Q76.06 20.99 75.79 20.62L75.79 20.62L75.79 20.62Q75.53 20.25 75.53 19.76L75.53 19.76L75.53 19.76Q75.53 19.37 75.76 19.01L75.76 19.01L75.76 19.01Q75.99 18.64 76.44 18.33L76.44 18.33L76.44 18.33Q76.70 18.15 77.03 17.92L77.03 17.92L77.03 17.92Q77.31 17.72 77.71 17.45L77.71 17.45L77.71 17.45Q78.11 17.17 78.62 16.84L78.62 16.84L78.62 16.84Q78.10 16.80 77.71 16.54L77.71 16.54L77.71 16.54Q77.32 16.28 77.06 15.89L77.06 15.89L77.06 15.89Q76.79 15.50 76.67 15.03L76.67 15.03L76.67 15.03Q76.54 14.56 76.54 14.10L76.54 14.10L76.54 14.10Q76.54 13.73 76.59 13.38L76.59 13.38L76.59 13.38Q76.64 13.02 76.73 12.71L76.73 12.71L76.73 12.71Q76.82 12.40 76.93 12.14L76.93 12.14L76.93 12.14Q77.04 11.89 77.16 11.72L77.16 11.72L77.16 11.72Q77.40 11.40 77.76 11.10L77.76 11.10L77.76 11.10Q78.11 10.80 78.52 10.55L78.52 10.55L78.52 10.55Q78.94 10.30 79.40 10.10L79.40 10.10L79.40 10.10Q79.86 9.91 80.31 9.77L80.31 9.77L80.31 9.77Q80.76 9.63 81.18 9.55L81.18 9.55L81.18 9.55Q81.61 9.47 81.96 9.47L81.96 9.47L81.96 9.47Q82.34 9.47 82.88 9.51L82.88 9.51L82.88 9.51Q83.41 9.55 84.10 9.67ZM82.25 10.62L82.25 10.62L82.25 10.62Q81.84 10.53 81.38 10.48L81.38 10.48L81.38 10.48Q80.91 10.44 80.49 10.44L80.49 10.44L80.49 10.44Q79.91 10.44 79.48 10.55L79.48 10.55L79.48 10.55Q79.06 10.67 78.77 10.98L78.77 10.98L78.77 10.98Q78.49 11.29 78.35 11.82L78.35 11.82L78.35 11.82Q78.20 12.35 78.20 13.18L78.20 13.18L78.20 13.18Q78.20 13.63 78.33 14.08L78.33 14.08L78.33 14.08Q78.46 14.52 78.71 14.88L78.71 14.88L78.71 14.88Q78.96 15.23 79.33 15.45L79.33 15.45L79.33 15.45Q79.69 15.67 80.17 15.67L80.17 15.67L80.17 15.67Q80.62 15.67 80.97 15.53L80.97 15.53L80.97 15.53Q81.31 15.39 81.56 15.14L81.56 15.14L81.56 15.14Q81.81 14.90 81.97 14.57L81.97 14.57L81.97 14.57Q82.13 14.24 82.22 13.87L82.22 13.87L82.22 13.87Q82.22 13.29 82.23 12.50L82.23 12.50L82.23 12.50Q82.24 11.71 82.25 10.62ZM77.44 18.14L77.44 18.14L77.44 18.14Q77.08 18.49 77.08 18.88L77.08 18.88L77.08 18.88Q77.08 19.18 77.24 19.41L77.24 19.41L77.24 19.41Q77.40 19.65 77.66 19.82L77.66 19.82L77.66 19.82Q77.92 20.00 78.24 20.12L78.24 20.12L78.24 20.12Q78.56 20.24 78.88 20.32L78.88 20.32L78.88 20.32Q79.21 20.39 79.50 20.43L79.50 20.43L79.50 20.43Q79.80 20.46 79.99 20.46L79.99 20.46L79.99 20.46Q80.45 20.46 80.83 20.38L80.83 20.38L80.83 20.38Q81.21 20.30 81.42 20.14L81.42 20.14L81.42 20.14Q81.66 19.96 81.81 19.49L81.81 19.49L81.81 19.49Q81.96 19.01 82.04 18.32L82.04 18.32L82.04 18.32Q82.13 17.64 82.17 16.78L82.17 16.78L82.17 16.78Q82.21 15.93 82.22 14.99L82.22 14.99L82.22 14.99Q81.87 15.33 81.49 15.65L81.49 15.65L81.49 15.65Q81.12 15.96 80.71 16.21L80.71 16.21L80.71 16.21Q80.31 16.46 79.89 16.63L79.89 16.63L79.89 16.63Q79.47 16.79 79.06 16.84L79.06 16.84L79.06 16.84Q78.65 17.14 78.34 17.38L78.34 17.38L78.34 17.38Q78.04 17.62 77.84 17.79L77.84 17.79L77.84 17.79Q77.61 17.99 77.44 18.14ZM96.84 15.76L96.84 15.76L96.84 15.76Q96.56 15.98 96.22 16.23L96.22 16.23L96.22 16.23Q95.87 16.47 95.48 16.67L95.48 16.67L95.48 16.67Q95.09 16.87 94.67 17.00L94.67 17.00L94.67 17.00Q94.24 17.13 93.80 17.13L93.80 17.13L93.80 17.13Q93.67 17.13 93.54 17.10L93.54 17.10L93.54 17.10Q93.41 17.06 93.30 16.98L93.30 16.98L93.30 16.98Q93.20 16.89 93.14 16.75L93.14 16.75L93.14 16.75Q93.08 16.60 93.08 16.39L93.08 16.39L93.08 16.39Q93.08 16.13 93.11 15.10L93.11 15.10L93.11 15.10Q93.12 14.66 93.14 14.01L93.14 14.01L93.14 14.01Q93.15 13.36 93.18 12.43L93.18 12.43L93.18 12.43Q93.20 11.51 93.24 10.28L93.24 10.28L93.24 10.28Q93.27 9.06 93.31 7.47L93.31 7.47L93.31 7.47Q92.67 7.55 92.04 7.59L92.04 7.59L92.04 7.59Q91.40 7.64 90.76 7.64L90.76 7.64L90.76 7.64Q90.17 7.64 89.78 7.57L89.78 7.57L89.78 7.57Q89.39 7.50 89.24 7.33L89.24 7.33L89.24 7.33Q89.15 7.18 89.29 6.95L89.29 6.95L89.29 6.95Q89.35 6.86 89.47 6.73L89.47 6.73L89.47 6.73Q89.58 6.61 89.79 6.46L89.79 6.46L89.79 6.46Q89.99 6.31 90.28 6.13L90.28 6.13L90.28 6.13Q90.58 5.95 90.99 5.75L90.99 5.75L90.99 5.75Q90.88 5.89 90.88 5.98L90.88 5.98L90.88 5.98Q90.89 6.07 90.94 6.13L90.94 6.13L90.94 6.13Q90.99 6.21 91.10 6.25L91.10 6.25L91.10 6.25Q91.29 6.33 91.70 6.39L91.70 6.39L91.70 6.39Q92.11 6.45 92.83 6.45L92.83 6.45L92.83 6.45Q93.63 6.45 94.39 6.38L94.39 6.38L94.39 6.38Q95.16 6.32 95.91 6.24L95.91 6.24L95.91 6.24Q96.66 6.17 97.40 6.10L97.40 6.10L97.40 6.10Q98.14 6.04 98.88 6.04L98.88 6.04L98.88 6.04Q99.08 6.04 99.23 6.05L99.23 6.05L99.23 6.05Q99.39 6.06 99.47 6.10L99.47 6.10L99.47 6.10Q99.60 6.15 99.56 6.25L99.56 6.25L99.56 6.25Q99.52 6.36 99.36 6.49L99.36 6.49L99.36 6.49Q99.21 6.62 98.98 6.77L98.98 6.77L98.98 6.77Q98.76 6.92 98.52 7.05L98.52 7.05L98.52 7.05Q98.28 7.18 98.06 7.28L98.06 7.28L98.06 7.28Q97.84 7.38 97.72 7.42L97.72 7.42L97.72 7.42Q97.78 7.21 97.64 7.12L97.64 7.12L97.64 7.12Q97.49 7.03 97.04 7.07L97.04 7.07L97.04 7.07Q96.01 7.15 95.02 7.27L95.02 7.27L94.75 15.76L94.75 15.76Q94.91 15.87 95.13 15.92L95.13 15.92L95.13 15.92Q95.35 15.97 95.58 15.97L95.58 15.97L95.58 15.97Q95.81 15.97 96.04 15.94L96.04 15.94L96.04 15.94Q96.26 15.91 96.44 15.87L96.44 15.87L96.44 15.87Q96.65 15.82 96.84 15.76ZM107.68 12.56L107.68 12.56L107.68 12.56Q107.68 13.13 107.52 13.60L107.52 13.60L107.52 13.60Q107.37 14.06 107.15 14.41L107.15 14.41L107.15 14.41Q106.93 14.76 106.70 14.99L106.70 14.99L106.70 14.99Q106.48 15.22 106.34 15.33L106.34 15.33L106.34 15.33Q105.94 15.61 105.53 15.89L105.53 15.89L105.53 15.89Q105.11 16.16 104.67 16.38L104.67 16.38L104.67 16.38Q104.23 16.59 103.76 16.72L103.76 16.72L103.76 16.72Q103.30 16.85 102.81 16.85L102.81 16.85L102.81 16.85Q102.07 16.85 101.42 16.67L101.42 16.67L101.42 16.67Q100.77 16.48 100.28 16.11L100.28 16.11L100.28 16.11Q99.79 15.74 99.51 15.18L99.51 15.18L99.51 15.18Q99.22 14.62 99.22 13.87L99.22 13.87L99.22 13.87Q99.22 13.21 99.45 12.62L99.45 12.62L99.45 12.62Q99.68 12.04 100.07 11.55L100.07 11.55L100.07 11.55Q100.45 11.05 100.97 10.66L100.97 10.66L100.97 10.66Q101.49 10.27 102.07 9.99L102.07 9.99L102.07 9.99Q102.66 9.72 103.27 9.58L103.27 9.58L103.27 9.58Q103.89 9.43 104.46 9.43L104.46 9.43L104.46 9.43Q105.17 9.43 105.76 9.67L105.76 9.67L105.76 9.67Q106.35 9.91 106.78 10.33L106.78 10.33L106.78 10.33Q107.21 10.75 107.44 11.32L107.44 11.32L107.44 11.32Q107.68 11.89 107.68 12.56ZM102.96 10.23L102.96 10.23L102.96 10.23Q102.61 10.23 102.33 10.35L102.33 10.35L102.33 10.35Q102.04 10.48 101.82 10.69L101.82 10.69L101.82 10.69Q101.60 10.91 101.44 11.19L101.44 11.19L101.44 11.19Q101.27 11.48 101.17 11.79L101.17 11.79L101.17 11.79Q101.06 12.10 101.01 12.42L101.01 12.42L101.01 12.42Q100.96 12.74 100.96 13.02L100.96 13.02L100.96 13.02Q100.96 13.65 101.19 14.20L101.19 14.20L101.19 14.20Q101.42 14.75 101.83 15.16L101.83 15.16L101.83 15.16Q102.24 15.57 102.78 15.80L102.78 15.80L102.78 15.80Q103.33 16.04 103.94 16.04L103.94 16.04L103.94 16.04Q104.32 16.04 104.68 15.89L104.68 15.89L104.68 15.89Q105.04 15.74 105.32 15.43L105.32 15.43L105.32 15.43Q105.59 15.11 105.76 14.60L105.76 14.60L105.76 14.60Q105.93 14.10 105.93 13.39L105.93 13.39L105.93 13.39Q105.93 12.77 105.70 12.20L105.70 12.20L105.70 12.20Q105.46 11.62 105.06 11.18L105.06 11.18L105.06 11.18Q104.66 10.75 104.12 10.49L104.12 10.49L104.12 10.49Q103.58 10.23 102.96 10.23ZM120.68 9.06L120.68 9.06L120.68 9.06Q120.78 9.35 120.84 9.60L120.84 9.60L120.84 9.60Q120.91 9.86 120.91 10.13L120.91 10.13L120.91 10.13Q120.91 10.33 120.86 10.55L120.86 10.55L120.86 10.55Q120.81 10.77 120.70 11.04L120.70 11.04L120.70 11.04Q120.59 11.30 120.41 11.61L120.41 11.61L120.41 11.61Q120.23 11.93 119.96 12.32L119.96 12.32L119.96 12.32Q119.50 12.97 119.14 13.48L119.14 13.48L119.14 13.48Q118.77 14 118.51 14.41L118.51 14.41L118.51 14.41Q118.24 14.82 118.07 15.14L118.07 15.14L118.07 15.14Q117.91 15.46 117.84 15.70L117.84 15.70L117.84 15.70Q117.61 15.83 117.37 16.01L117.37 16.01L117.37 16.01Q117.15 16.17 116.90 16.40L116.90 16.40L116.90 16.40Q116.64 16.63 116.39 16.95L116.39 16.95L116.39 16.95Q116.46 16.63 116.39 16.25L116.39 16.25L116.39 16.25Q116.32 15.87 116.17 15.46L116.17 15.46L116.17 15.46Q116.01 15.05 115.80 14.62L115.80 14.62L115.80 14.62Q115.59 14.18 115.37 13.76L115.37 13.76L115.37 13.76Q115.14 13.34 114.94 12.93L114.94 12.93L114.94 12.93Q114.74 12.52 114.61 12.16L114.61 12.16L114.61 12.16Q114.34 12.57 114.02 13.02L114.02 13.02L114.02 13.02Q113.71 13.47 113.44 13.92L113.44 13.92L113.44 13.92Q113.17 14.37 112.98 14.80L112.98 14.80L112.98 14.80Q112.80 15.22 112.79 15.59L112.79 15.59L112.79 15.59Q112.59 15.70 112.37 15.87L112.37 15.87L112.37 15.87Q112.17 16.02 111.91 16.27L111.91 16.27L111.91 16.27Q111.65 16.51 111.36 16.86L111.36 16.86L111.36 16.86Q111.30 16.20 111.18 15.55L111.18 15.55L111.18 15.55Q111.05 14.90 110.92 14.36L110.92 14.36L110.92 14.36Q110.76 13.75 110.59 13.18L110.59 13.18L110.59 13.18Q110.41 12.61 110.20 12.12L110.20 12.12L110.20 12.12Q109.99 11.63 109.75 11.27L109.75 11.27L109.75 11.27Q109.52 10.90 109.25 10.70L109.25 10.70L109.25 10.70Q108.98 10.49 108.67 10.49L108.67 10.49L108.67 10.49Q108.50 10.49 108.33 10.56L108.33 10.56L108.33 10.56Q108.17 10.62 107.97 10.75L107.97 10.75L107.97 10.75Q108.21 10.52 108.49 10.26L108.49 10.26L108.49 10.26Q108.77 10.01 109.09 9.79L109.09 9.79L109.09 9.79Q109.40 9.56 109.73 9.42L109.73 9.42L109.73 9.42Q110.07 9.28 110.39 9.28L110.39 9.28L110.39 9.28Q110.61 9.28 110.80 9.38L110.80 9.38L110.80 9.38Q110.98 9.48 111.11 9.70L111.11 9.70L111.11 9.70Q111.24 9.93 111.46 10.38L111.46 10.38L111.46 10.38Q111.68 10.83 111.91 11.44L111.91 11.44L111.91 11.44Q112.14 12.04 112.35 12.77L112.35 12.77L112.35 12.77Q112.55 13.49 112.65 14.26L112.65 14.26L112.65 14.26Q112.98 13.83 113.27 13.36L113.27 13.36L113.27 13.36Q113.56 12.89 113.77 12.39L113.77 12.39L113.77 12.39Q113.99 11.89 114.12 11.39L114.12 11.39L114.12 11.39Q114.24 10.88 114.24 10.37L114.24 10.37L115.80 9.13L115.80 9.13Q115.77 9.31 115.79 9.52L115.79 9.52L115.79 9.52Q115.81 9.73 115.86 9.91L115.86 9.91L115.86 9.91Q115.90 10.12 115.98 10.32L115.98 10.32L115.98 10.32Q116.03 10.47 116.16 10.75L116.16 10.75L116.16 10.75Q116.29 11.03 116.46 11.39L116.46 11.39L116.46 11.39Q116.63 11.75 116.83 12.16L116.83 12.16L116.83 12.16Q117.03 12.57 117.22 12.98L117.22 12.98L117.22 12.98Q117.41 13.39 117.58 13.77L117.58 13.77L117.58 13.77Q117.74 14.16 117.86 14.46L117.86 14.46L117.86 14.46Q118.12 14.07 118.38 13.65L118.38 13.65L118.38 13.65Q118.64 13.24 118.85 12.82L118.85 12.82L118.85 12.82Q119.06 12.40 119.19 11.98L119.19 11.98L119.19 11.98Q119.33 11.55 119.33 11.14L119.33 11.14L119.33 11.14Q119.33 10.94 119.29 10.73L119.29 10.73L119.29 10.73Q119.26 10.53 119.17 10.32L119.17 10.32L119.17 10.32Q119.55 10.06 119.83 9.83L119.83 9.83L119.83 9.83Q120.11 9.60 120.31 9.43L120.31 9.43L120.31 9.43Q120.53 9.24 120.68 9.06ZM125.69 11.66L130.70 10.02L130.70 10.02Q129.92 10.40 129.24 10.70L129.24 10.70L129.24 10.70Q128.57 11.00 128.06 11.20L128.06 11.20L128.06 11.20Q127.46 11.44 126.96 11.63L126.96 11.63L126.96 11.63Q126.66 11.76 126.28 11.89L126.28 11.89L126.28 11.89Q125.91 12.02 125.51 12.15L125.51 12.15L125.51 12.15Q125.10 12.28 124.68 12.40L124.68 12.40L124.68 12.40Q124.26 12.53 123.85 12.65L123.85 12.65L123.85 12.79L123.85 12.79Q123.85 13.49 124.08 14.05L124.08 14.05L124.08 14.05Q124.30 14.62 124.69 15.01L124.69 15.01L124.69 15.01Q125.09 15.40 125.64 15.61L125.64 15.61L125.64 15.61Q126.20 15.82 126.87 15.82L126.87 15.82L126.87 15.82Q127.22 15.82 127.56 15.76L127.56 15.76L127.56 15.76Q127.91 15.71 128.22 15.62L128.22 15.62L128.22 15.62Q128.53 15.52 128.80 15.39L128.80 15.39L128.80 15.39Q129.08 15.26 129.29 15.11L129.29 15.11L129.29 15.11Q128.77 15.58 128.22 15.89L128.22 15.89L128.22 15.89Q127.67 16.21 127.12 16.40L127.12 16.40L127.12 16.40Q126.57 16.60 126.03 16.69L126.03 16.69L126.03 16.69Q125.49 16.78 125.00 16.78L125.00 16.78L125.00 16.78Q124.50 16.80 124.02 16.63L124.02 16.63L124.02 16.63Q123.54 16.46 123.14 16.12L123.14 16.12L123.14 16.12Q122.75 15.78 122.47 15.27L122.47 15.27L122.47 15.27Q122.20 14.76 122.12 14.08L122.12 14.08L122.12 14.08Q122.08 13.84 122.09 13.62L122.09 13.62L122.09 13.62Q122.09 13.40 122.13 13.18L122.13 13.18L122.13 13.18Q121.89 13.27 121.70 13.34L121.70 13.34L121.70 13.34Q121.50 13.42 121.38 13.49L121.38 13.49L121.38 13.49Q121.58 13.36 121.78 13.24L121.78 13.24L121.78 13.24Q121.97 13.12 122.17 13.02L122.17 13.02L122.17 13.02Q122.28 12.48 122.56 12.00L122.56 12.00L122.56 12.00Q122.85 11.51 123.25 11.09L123.25 11.09L123.25 11.09Q123.65 10.68 124.14 10.34L124.14 10.34L124.14 10.34Q124.63 10.00 125.16 9.76L125.16 9.76L125.16 9.76Q125.69 9.52 126.24 9.39L126.24 9.39L126.24 9.39Q126.79 9.26 127.30 9.26L127.30 9.26L127.30 9.26Q127.64 9.26 127.88 9.37L127.88 9.37L127.88 9.37Q128.11 9.47 128.19 9.73L128.19 9.73L128.19 9.73Q128.24 10.00 128.00 10.32L128.00 10.32L128.00 10.32Q127.89 10.45 127.72 10.61L127.72 10.61L127.72 10.61Q127.54 10.76 127.27 10.93L127.27 10.93L127.27 10.93Q126.99 11.10 126.60 11.29L126.60 11.29L126.60 11.29Q126.22 11.47 125.69 11.66L125.69 11.66ZM125.28 11.68L125.28 11.68L125.28 11.68Q125.58 11.55 125.81 11.40L125.81 11.40L125.81 11.40Q126.05 11.25 126.18 11.09L126.18 11.09L126.18 11.09Q126.31 10.92 126.32 10.75L126.32 10.75L126.32 10.75Q126.33 10.57 126.18 10.37L126.18 10.37L126.18 10.37Q126.08 10.22 125.89 10.16L125.89 10.16L125.89 10.16Q125.71 10.10 125.52 10.10L125.52 10.10L125.52 10.10Q125.34 10.10 125.18 10.14L125.18 10.14L125.18 10.14Q125.02 10.18 124.89 10.24L124.89 10.24L124.89 10.24Q124.81 10.29 124.67 10.45L124.67 10.45L124.67 10.45Q124.52 10.61 124.37 10.87L124.37 10.87L124.37 10.87Q124.22 11.12 124.09 11.46L124.09 11.46L124.09 11.46Q123.96 11.80 123.89 12.20L123.89 12.20L123.89 12.20Q124.33 12.04 124.67 11.92L124.67 11.92L124.67 11.92Q125.02 11.80 125.28 11.68ZM132.82 11.01L132.82 11.01L132.82 11.01Q133.14 10.71 133.52 10.40L133.52 10.40L133.52 10.40Q133.90 10.09 134.29 9.84L134.29 9.84L134.29 9.84Q134.68 9.59 135.08 9.43L135.08 9.43L135.08 9.43Q135.47 9.28 135.82 9.28L135.82 9.28L135.82 9.28Q136.06 9.28 136.29 9.33L136.29 9.33L136.29 9.33Q136.52 9.38 136.74 9.44L136.74 9.44L136.74 9.44Q136.96 9.51 137.18 9.56L137.18 9.56L137.18 9.56Q137.40 9.61 137.63 9.61L137.63 9.61L137.63 9.61Q137.76 9.61 137.92 9.59L137.92 9.59L137.92 9.59Q138.07 9.57 138.26 9.52L138.26 9.52L138.26 9.52Q137.83 9.84 137.50 10.08L137.50 10.08L137.50 10.08Q137.18 10.32 136.90 10.48L136.90 10.48L136.90 10.48Q136.62 10.63 136.35 10.70L136.35 10.70L136.35 10.70Q136.07 10.77 135.73 10.76L135.73 10.76L135.73 10.76Q135.39 10.75 135.10 10.69L135.10 10.69L135.10 10.69Q134.80 10.63 134.56 10.56L134.56 10.56L134.56 10.56Q134.31 10.50 134.13 10.47L134.13 10.47L134.13 10.47Q133.95 10.44 133.85 10.49L133.85 10.49L133.85 10.49Q133.60 10.62 133.42 10.94L133.42 10.94L133.42 10.94Q133.23 11.27 133.11 11.72L133.11 11.72L133.11 11.72Q132.98 12.17 132.90 12.70L132.90 12.70L132.90 12.70Q132.82 13.23 132.78 13.75L132.78 13.75L132.78 13.75Q132.75 14.28 132.75 14.76L132.75 14.76L132.75 14.76Q132.75 15.23 132.77 15.58L132.77 15.58L132.77 15.58Q132.26 15.91 131.93 16.15L131.93 16.15L131.93 16.15Q131.59 16.39 131.39 16.54L131.39 16.54L131.39 16.54Q131.16 16.73 131.04 16.86L131.04 16.86L131.04 16.86Q131.04 16.45 131.06 15.87L131.06 15.87L131.06 15.87Q131.07 15.29 131.08 14.64L131.08 14.64L131.08 14.64Q131.09 14 131.10 13.37L131.10 13.37L131.10 13.37Q131.11 12.74 131.11 12.23L131.11 12.23L131.11 12.23Q131.11 11.91 131.09 11.58L131.09 11.58L131.09 11.58Q131.07 11.25 130.98 10.97L130.98 10.97L130.98 10.97Q130.88 10.70 130.68 10.53L130.68 10.53L130.68 10.53Q130.48 10.36 130.11 10.36L130.11 10.36L130.11 10.36Q129.96 10.36 129.81 10.39L129.81 10.39L129.81 10.39Q129.66 10.42 129.51 10.49L129.51 10.49L129.51 10.49Q129.79 10.30 130.08 10.10L130.08 10.10L130.08 10.10Q130.37 9.91 130.66 9.74L130.66 9.74L130.66 9.74Q130.95 9.58 131.24 9.48L131.24 9.48L131.24 9.48Q131.53 9.39 131.83 9.39L131.83 9.39L131.83 9.39Q132.19 9.39 132.40 9.54L132.40 9.54L132.40 9.54Q132.60 9.70 132.69 9.94L132.69 9.94L132.69 9.94Q132.78 10.18 132.80 10.47L132.80 10.47L132.80 10.47Q132.82 10.75 132.82 11.01Z"></path></g><!----><!----></svg>